<svg xmlns="http://www.w3.org/2000/svg" viewBox="0 0 353 141" role="img" aria-label="WYLDE">
    <path d="M8 9L8 134L30 134L30 133L31 133L31 132L33 132L33 131L36 131L36 130L37 130L37 129L39 129L39 128L41 128L41 127L43 127L43 126L45 126L45 125L47 125L47 124L50 124L50 123L53 123L53 124L56 124L56 125L58 125L58 126L60 126L60 127L62 127L62 128L64 128L64 129L66 129L66 130L68 130L68 131L69 131L69 132L72 132L72 133L73 133L73 134L95 134L95 134L95 9L71 9L71 10L70 10L70 111L69 111L69 110L67 110L67 109L66 109L66 108L64 108L64 9L40 9L40 10L39 10L39 108L38 108L38 109L36 109L36 110L34 110L34 111L33 111L33 9ZM227 9L227 134L260 134L260 134L260 132L262 132L262 130L263 130L263 129L264 129L264 128L265 128L265 127L266 127L266 126L267 126L267 125L268 125L268 124L270 124L270 123L271 123L271 121L273 121L273 119L274 119L274 118L275 118L275 117L276 117L276 116L277 116L277 115L278 115L278 114L279 114L279 113L281 113L281 111L283 111L283 9ZM102 9L102 48L103 48L103 49L104 49L104 50L105 50L105 51L106 51L106 52L107 52L107 53L108 53L108 54L109 54L109 55L111 55L111 57L113 57L113 59L114 59L114 60L115 60L115 61L116 61L116 62L117 62L117 63L119 63L119 65L120 65L120 66L122 66L122 68L124 68L124 70L125 70L125 71L126 71L126 72L127 72L127 73L128 73L128 74L129 74L129 75L130 75L130 76L131 76L131 77L132 77L132 78L133 78L133 115L126 115L126 80L125 80L125 79L124 79L124 78L123 78L123 77L122 77L122 76L121 76L121 75L120 75L120 74L119 74L119 73L118 73L118 72L117 72L117 71L116 71L116 70L115 70L115 69L114 69L114 68L113 68L113 66L111 66L111 65L110 65L110 64L109 64L109 63L108 63L108 62L107 62L107 61L106 61L106 60L105 60L105 59L104 59L104 58L103 58L103 57L102 57L102 134L158 134L158 134L158 9L133 9L133 50L131 50L131 49L130 49L130 48L128 48L128 47L127 47L127 45L126 45L126 9ZM289 9L289 73L288 73L288 79L289 79L289 85L288 85L288 91L289 91L289 96L288 96L288 99L289 99L289 134L344 134L344 134L344 87L343 87L343 88L342 88L342 89L340 89L340 90L337 90L337 91L336 91L336 92L334 92L334 93L332 93L332 94L330 94L330 95L328 95L328 96L326 96L326 97L324 97L324 98L322 98L322 99L320 99L320 100L319 100L319 115L317 115L317 116L314 116L314 115L313 115L313 86L314 86L314 85L315 85L315 84L316 84L316 83L317 83L317 82L318 82L318 81L319 81L319 80L320 80L320 79L321 79L321 78L322 78L322 52L321 52L321 53L320 53L320 54L319 54L319 55L318 55L318 56L317 56L317 57L316 57L316 58L315 58L315 59L314 59L314 60L313 60L313 28L332 28L332 27L333 27L333 25L334 25L334 24L335 24L335 22L336 22L336 21L337 21L337 19L338 19L338 18L339 18L339 16L340 16L340 15L341 15L341 14L342 14L342 12L343 12L343 10L344 10L344 9ZM164 9L164 134L220 134L220 134L220 87L219 87L219 88L217 88L217 89L215 89L215 90L213 90L213 91L211 91L211 92L209 92L209 93L207 93L207 94L206 94L206 95L203 95L203 96L202 96L202 97L199 97L199 98L198 98L198 99L196 99L196 100L195 100L195 115L189 115L189 13L188 13L188 9ZM251 28L258 28L258 109L257 109L257 110L256 110L256 111L255 111L255 112L254 112L254 113L253 113L253 114L253 114L251 114Z" fill="#FFFFFF" fill-rule="evenodd"/>
</svg>
